HIERARCHY
ROOT Hips
{
	OFFSET -3.958830 18.904000 13.208200
	CHANNELS 6 Xposition Yposition Zposition Zrotation Yrotation Xrotation 
	JOINT LHipJoint
	{
		OFFSET 0.000000 0.000000 0.000000
		CHANNELS 3 Zrotation Yrotation Xrotation
		JOINT LeftUpLeg
		{
			OFFSET 1.800000 -1.400000 0.085000
			CHANNELS 3 Zrotation Yrotation Xrotation
			JOINT LeftLeg
			{
				OFFSET 2.215000 -6.000000 0.000000
				CHANNELS 3 Zrotation Yrotation Xrotation
				JOINT LeftFoot
				{
					OFFSET 2.500000 -6.900000 0.000000
					CHANNELS 3 Zrotation Yrotation Xrotation
					JOINT LeftToeBase
					{
						OFFSET 0.200000 -0.500000 1.950000
						CHANNELS 3 Zrotation Yrotation Xrotation
						End Site
						{
							OFFSET 0.000000 0.000000 0.000000
						}
					}
				}
			}
		}
	}
	JOINT RHipJoint
	{
		OFFSET 0.000000 0.000000 0.000000
		CHANNELS 3 Zrotation Yrotation Xrotation
		JOINT RightUpLeg
		{
			OFFSET -1.800000 -1.400000 0.085000
			CHANNELS 3 Zrotation Yrotation Xrotation
			JOINT RightLeg
			{
				OFFSET -2.215000 -6.000000 0.000000
				CHANNELS 3 Zrotation Yrotation Xrotation
				JOINT RightFoot
				{
					OFFSET -2.500000 -6.900000 0.000000
					CHANNELS 3 Zrotation Yrotation Xrotation
					JOINT RightToeBase
					{
						OFFSET -0.200000 -0.500000 1.950000
						CHANNELS 3 Zrotation Yrotation Xrotation
						End Site
						{
							OFFSET 0.000000 0.000000 0.000000
						}
					}
				}
			}
		}
	}
	JOINT LowerBack
	{
		OFFSET 0.000000 0.000000 0.000000
		CHANNELS 3 Zrotation Yrotation Xrotation
		JOINT Spine
		{
			OFFSET -0.087000 1.940000 -0.288900
			CHANNELS 3 Zrotation Yrotation Xrotation
			JOINT Spine1
			{
				OFFSET 0.000000 1.950000 0.060000
				CHANNELS 3 Zrotation Yrotation Xrotation
				JOINT Neck
				{
					OFFSET 0.000000 0.000000 0.000000
					CHANNELS 3 Zrotation Yrotation Xrotation
					JOINT Neck1
					{
						OFFSET 0.000000 1.600000 0.340000
						CHANNELS 3 Zrotation Yrotation Xrotation
						JOINT Head
						{
							OFFSET 0.000000 1.667000 -0.240000
							CHANNELS 3 Zrotation Yrotation Xrotation
							End Site
							{
								OFFSET 0.000000 0.000000 0.000000
							}
						}
					}
				}
				JOINT LeftShoulder
				{
					OFFSET 0.000000 0.000000 0.000000
					CHANNELS 3 Zrotation Yrotation Xrotation
					JOINT LeftArm
					{
						OFFSET 2.700000 1.550000 -0.730000
						CHANNELS 3 Zrotation Yrotation Xrotation
						JOINT LeftForeArm
						{
							OFFSET 5.450000 0.000000 0.000000
							CHANNELS 3 Zrotation Yrotation Xrotation
							JOINT LeftHand
							{
								OFFSET 3.450000 0.000000 0.000000
								CHANNELS 3 Zrotation Yrotation Xrotation
								JOINT LeftHandIndex1
								{
									OFFSET 0.750000 0.000000 0.000000
									CHANNELS 3 Zrotation Yrotation Xrotation
									End Site
									{
										OFFSET 0.000000 0.000000 0.000000
									}
								}
							}
						}
					}
				}
				JOINT RightShoulder
				{
					OFFSET 0.000000 0.000000 0.000000
					CHANNELS 3 Zrotation Yrotation Xrotation
					JOINT RightArm
					{
						OFFSET -2.700000 1.550000 -0.730000
						CHANNELS 3 Zrotation Yrotation Xrotation
						JOINT RightForeArm
						{
							OFFSET -5.450000 0.000000 0.000000
							CHANNELS 3 Zrotation Yrotation Xrotation
							JOINT RightHand
							{
								OFFSET -3.450000 0.000000 0.000000
								CHANNELS 3 Zrotation Yrotation Xrotation
								JOINT RightHandIndex1
								{
									OFFSET -0.750000 0.000000 0.000000
									CHANNELS 3 Zrotation Yrotation Xrotation
									End Site
									{
										OFFSET 0.000000 0.000000 0.000000
									}
								}
							}
						}
					}
				}
			}
		}
	}
}
MOTION
Frames: 9
Frame Time: 0.016667
0.957550 16.871690 -1.342380 -4.591796 -4.557936 7.912288 -15.323168 12.715100 3.097354 -0.093365 -1.306589 -8.153574 -9.198415 4.049536 2.295444 -0.704787 4.104486 3.618736 0.679610 0.157140 0.447550 18.135562 -10.436077 2.830156 -22.312827 0.563429 -18.127502 3.439923 -3.541407 0.981222 -0.448066 -3.505673 3.280965 0.162820 0.488010 0.513450 -3.187988 -1.361615 -7.420344 4.391888 0.750318 5.486751 3.043777 0.370868 5.778419 1.956187 0.038828 -8.600707 -0.461191 3.965969 29.049045 -4.986780 5.505000 -15.198580 -29.824160 -14.853831 4.660943 -53.084154 -10.619539 0.075255 -5.674701 -17.141646 -1.511137 -3.898151 2.814351 0.830060 0.326760 0.005450 0.453710 26.885723 16.557199 5.538615 50.890596 12.030586 -2.767211 0.463363 16.739504 -1.083725 1.755943 -1.462437 -0.285830 0.325550 -0.110200 -0.321990 
0.949030 16.875450 -1.332690 -4.447222 -4.334793 7.770764 -15.366968 12.719049 3.089878 -0.142462 -1.258971 -7.868860 -9.114896 4.039085 2.166550 -0.697437 4.111430 3.611364 0.677490 0.144700 0.470490 18.097932 -10.388199 2.844400 -23.266408 0.460009 -18.111240 3.456700 -3.607722 0.960746 -0.455593 -3.562112 3.247684 0.152900 0.463780 0.507940 -3.072306 -1.434912 -7.434912 3.424827 0.843423 5.407745 3.619440 0.402882 5.728203 2.042477 0.442839 -8.647404 0.188730 3.807254 29.691960 -5.382590 5.819050 -15.041520 -29.617057 -14.782142 4.700912 -53.382260 -10.586794 0.055663 -5.312731 -17.075709 -1.556686 -3.889781 2.809164 0.839800 0.316580 0.011240 0.438430 26.625000 16.290599 5.478747 51.079043 11.902403 -2.865523 0.034963 16.765722 -1.133735 1.766759 -1.458798 -0.287690 0.310730 -0.115520 -0.338590 
0.936340 16.879430 -1.322030 -4.285579 -4.214618 7.674917 -15.407792 12.713885 3.084594 -0.113137 -1.204719 -7.568549 -9.203253 4.050651 1.999971 -0.677926 4.142225 3.598237 0.675440 0.133030 0.480790 18.065283 -10.353691 2.844525 -23.930031 0.377403 -18.119633 3.452256 -3.664736 1.028586 -0.461108 -3.604430 3.221094 0.142900 0.452010 0.512620 -2.966516 -1.477458 -7.430423 2.351746 0.992074 5.212490 4.279743 0.472010 5.748783 1.994789 0.831368 -8.718420 0.839527 3.691641 30.173664 -5.436270 6.008550 -14.637580 -29.354271 -14.805981 4.804592 -53.608008 -10.479543 -0.001284 -5.132201 -17.152020 -1.585860 -3.888922 2.820021 0.838730 0.313300 0.013320 0.431870 26.579823 16.144869 5.432506 51.129943 11.809998 -2.847039 -0.543791 16.314027 -1.175205 1.778454 -1.464693 -0.281870 0.294830 -0.116390 -0.346020 
0.922110 16.883750 -1.310780 -4.003021 -4.003010 7.595542 -15.453021 12.710203 3.076875 -0.272174 -1.150805 -7.332951 -9.158685 4.046895 1.908076 -0.673079 4.158408 3.594922 0.665420 0.119100 0.479500 18.029496 -10.317168 2.843758 -24.453451 0.304393 -17.950222 3.443132 -3.709630 0.959670 -0.463678 -3.657061 3.201056 0.135950 0.453400 0.511220 -2.850908 -1.528195 -7.416491 1.112642 1.128442 4.974190 5.060163 0.519154 5.754070 1.897295 1.200870 -8.791110 1.466951 3.509902 30.523325 -5.511780 6.092790 -14.279240 -29.176284 -14.830255 4.917891 -53.732296 -10.274779 -0.125905 -5.082329 -17.414591 -1.603304 -3.891544 2.815044 0.840070 0.317460 0.009690 0.427270 26.728325 16.030364 5.391446 50.815248 11.685442 -2.734769 -0.869720 15.589695 -1.154271 1.786815 -1.461410 -0.287460 0.292260 -0.112720 -0.350600 
0.907160 16.883050 -1.296230 -3.854770 -3.777541 7.715705 -15.487307 12.684452 3.062806 -0.411965 -1.108660 -7.145095 -8.956046 3.963139 1.531979 -0.667832 4.154721 3.599142 0.662890 0.114660 0.484780 18.010069 -10.275472 2.844218 -24.717738 0.290621 -17.815909 3.554104 -3.729707 0.775176 -0.469342 -3.705242 3.175952 0.131890 0.457640 0.522550 -2.776762 -1.543719 -7.374518 0.126220 1.234269 4.557618 5.793187 0.535789 5.571521 1.807428 1.603859 -8.635321 2.192293 3.314083 30.288403 -5.707030 6.208440 -14.050120 -28.919944 -14.327497 4.807056 -54.071317 -10.199952 -0.077560 -5.125249 -17.467175 -1.600034 -3.909322 2.820361 0.831650 0.327680 0.007070 0.422380 26.752437 15.320926 5.099192 50.597223 11.592485 -2.549539 -0.948216 14.959156 -1.123161 1.799076 -1.466678 -0.282530 0.281580 -0.111120 -0.350730 
0.890280 16.878050 -1.281330 -3.807827 -3.526688 7.879839 -15.500936 12.654075 3.046827 -0.463960 -1.077974 -7.008635 -8.656356 3.849038 1.074448 -0.669217 4.150403 3.605394 0.655750 0.108510 0.471740 18.010415 -10.256682 2.832880 -24.745103 0.298259 -17.764949 3.821376 -3.769935 0.797219 -0.460781 -3.748998 3.159520 0.134300 0.476630 0.534120 -2.761229 -1.521596 -7.313251 -0.491270 1.286767 4.038294 6.267094 0.528734 5.448680 1.647876 1.896976 -8.427007 2.731336 3.187535 29.769157 -5.720550 6.186240 -13.367060 -28.453025 -13.757777 4.630188 -54.387516 -10.296237 0.156013 -5.296392 -17.264785 -1.561715 -3.944215 2.832742 0.808540 0.351450 -0.010580 0.423150 26.651376 14.548000 4.783100 50.612744 11.516712 -2.388945 -1.103119 14.524509 -1.138193 1.799890 -1.483081 -0.280000 0.272680 -0.102670 -0.345850 
0.871750 16.876420 -1.267110 -3.758481 -3.354438 7.857811 -15.515898 12.671708 3.042739 -0.384000 -1.042759 -6.901143 -8.581821 3.841577 1.029009 -0.661704 4.159564 3.604695 0.655800 0.110420 0.465040 17.997291 -10.263462 2.802339 -24.509562 0.295686 -17.595650 3.862083 -3.789054 0.948189 -0.457820 -3.747425 3.164288 0.134590 0.482880 0.538250 -2.720222 -1.552742 -7.273747 -1.105580 1.332580 3.805225 6.752565 0.530536 5.328086 1.466860 2.006499 -8.340798 2.897980 3.089693 29.742965 -5.539610 6.073870 -13.137440 -28.047256 -13.393267 4.534394 -54.656774 -10.327915 0.305777 -5.417410 -17.035290 -1.532611 -3.952060 2.836802 0.802340 0.356100 -0.013040 0.428140 26.658511 14.119270 4.627804 50.444656 11.374764 -2.318550 -1.292069 14.053787 -1.130670 1.807637 -1.487531 -0.276620 0.269450 -0.103960 -0.339890 
0.854140 16.873340 -1.251200 -3.577683 -3.244215 7.848087 -15.531585 12.686319 3.032241 -0.477753 -1.000353 -6.833657 -8.419178 3.834382 1.071086 -0.664737 4.165270 3.603928 0.636750 0.098470 0.430060 17.986480 -10.256549 2.780879 -24.370846 0.300511 -17.398872 3.913269 -3.802113 0.977119 -0.443056 -3.768780 3.167829 0.135140 0.505240 0.537460 -2.682307 -1.597527 -7.228034 -1.815435 1.364140 3.462953 7.210385 0.533355 5.215331 1.238688 2.064962 -8.235332 2.979790 3.143432 29.623350 -5.220410 5.972900 -12.485650 -27.708968 -13.012929 4.450937 -54.927511 -10.284119 0.425884 -5.297021 -16.847921 -1.536691 -3.974452 2.838952 0.786040 0.374140 -0.032250 0.431890 26.825069 13.688153 4.462082 50.139264 11.223476 -2.229058 -1.413195 13.575276 -1.115666 1.806567 -1.490189 -0.282890 0.270630 -0.088870 -0.331070 
0.837070 16.869720 -1.237900 -3.374587 -3.176282 7.663296 -15.546820 12.709935 3.033337 -0.588062 -0.931833 -6.613315 -8.318839 3.858104 1.129858 -0.657990 4.188967 3.606926 0.616280 0.067800 0.423970 17.970816 -10.266277 2.756025 -24.161353 0.289374 -17.061154 3.878739 -3.818350 1.018793 -0.436694 -3.766515 3.180865 0.116600 0.520360 0.530680 -2.636538 -1.634266 -7.205907 -2.478821 1.447595 3.311417 7.445385 0.611450 5.244529 1.145137 2.121583 -8.302324 3.039559 3.058873 30.062235 -5.112070 5.883920 -12.054160 -27.321211 -12.937850 4.496486 -54.934276 -10.203496 0.392107 -5.188330 -17.010378 -1.552078 -3.984495 2.819926 0.787070 0.378610 -0.043880 0.425690 26.661601 13.604361 4.503753 50.308333 11.056767 -2.308163 -1.783336 13.524963 -1.142613 1.807073 -1.475310 -0.292740 0.283020 -0.075150 -0.333560 
